<?xml version="1.0" encoding="utf-8"?>
<!-- Generator: Adobe Illustrator 16.0.3, SVG Export Plug-In . SVG Version: 6.00 Build 0)  -->
<!DOCTYPE svg PUBLIC "-//W3C//DTD SVG 1.1//EN" "http://www.w3.org/Graphics/SVG/1.1/DTD/svg11.dtd">
<svg version="1.1" xmlns="http://www.w3.org/2000/svg" xmlns:xlink="http://www.w3.org/1999/xlink" x="0px" y="0px"
	 width="179.592px" height="84px" viewBox="0 0 179.592 84" enable-background="new 0 0 179.592 84" xml:space="preserve">
<g id="Layer_1">
	<rect x="-1063.5" y="-470" fill="#E6E6E6" width="768" height="1024"/>
	<g>
		<g opacity="0.4">
			<image overflow="visible" width="734" height="1096" xlink:href="6FE9BAA4.png"  transform="matrix(1 0 0 1 -1047.5 -506)">
			</image>
		</g>
		<rect x="-1011.5" y="-470" fill="#FFFFFF" width="662" height="1024"/>
	</g>
	<g>
		<text transform="matrix(1 0 0 1 -981.5 -371)" fill="#C1272D" font-family="'Constantia'" font-size="48">PAVE</text>
		<polygon fill="#1F1A3F" points="-805.781,-372.299 -828.802,-371.963 -841.576,-352.809 -849.009,-374.6 -871.172,-380.83 
			-852.746,-394.633 -853.669,-417.638 -834.848,-404.378 -813.255,-412.364 -820.05,-390.367 		"/>
		<polyline display="none" fill="none" stroke="#C1272D" stroke-miterlimit="10" points="-1011.5,-365 -862.5,-365.5 
			-848.167,-336.667 -824.5,-358.333 -349.5,-357.313 		"/>
	</g>
	<g>
		<defs>
			<polygon id="SVGID_1_" points="-349.5,-160 -1011.5,-161 -1011.5,-365 -862.5,-365 -848.5,-335.5 -824.5,-357.809 -349.625,-357 
							"/>
		</defs>
		<use xlink:href="#SVGID_1_"  overflow="visible" fill="#1F1A3F"/>
		<clipPath id="SVGID_2_">
			<use xlink:href="#SVGID_1_"  overflow="visible"/>
		</clipPath>
		<g transform="matrix(1 0 0 1 6.103516e-005 3.051758e-005)" clip-path="url(#SVGID_2_)">
			
				<image overflow="visible" width="1400" height="900" xlink:href="6FE9BAA4.jpg"  transform="matrix(0.2948 0 0 0.2829 -1011.5 -414.6304)">
			</image>
		</g>
		<polygon clip-path="url(#SVGID_2_)" fill="#1F1A3F" points="-349.5,-153 -619.214,-148.035 -619.802,-358 -349.5,-358 		"/>
		<polygon display="none" clip-path="url(#SVGID_2_)" fill="#1F1A3F" points="-598.042,-364 -632.281,-286 -619.5,-286 -619.5,-234 
			-654.5,-234 -654.5,-235.383 -687.366,-160.51 -348.5,-159 -348.5,-364 		"/>
	</g>
	<text transform="matrix(1 0 0 1 -800.5 -363)" fill="#1B1464" font-family="'Verdana'" font-size="15">PROGRAMS  LOCATIONS  NEWS  GET INVOLVED  ABOUT</text>
	<rect x="-1011.5" y="-161" fill="#C1272D" width="662" height="63"/>
	<linearGradient id="SVGID_3_" gradientUnits="userSpaceOnUse" x1="-1124.5" y1="-519.5" x2="-1029.5" y2="-519.5">
		<stop  offset="0" style="stop-color:#201B39"/>
		<stop  offset="0.5269" style="stop-color:#1F1943"/>
		<stop  offset="1" style="stop-color:#1B1464"/>
	</linearGradient>
	<rect x="-1124.5" y="-540" fill="url(#SVGID_3_)" width="95" height="41"/>
	<rect x="-1147.5" y="-405" fill="#1F1A3F" width="66" height="42"/>
	<rect x="-825.5" y="-547" fill="#1F1A3F" width="57" height="35"/>
	<rect x="-1011.5" y="-289" width="35" height="52"/>
	<polygon fill="#FFFFFF" points="-985.5,-240 -994.5,-240 -1007.5,-260.333 -994.5,-280 -985.5,-280 -998.5,-260 	"/>
	<rect x="-654.5" y="-286" opacity="0.5" width="35" height="52"/>
	<polygon fill="#FFFFFF" points="-645.5,-240 -636.5,-240 -623.5,-260.333 -636.5,-280 -645.5,-280 -632.5,-260 	"/>
	<g>
		<text transform="matrix(1 0 0 1 -976.5 240)" fill="#C1272D" font-family="'Constantia'" font-size="19">CONNECT WITH US</text>
	</g>
	<g>
		<rect x="-595.5" y="-466" fill="#E6E6E6" width="246" height="34"/>
		<rect x="-596.5" y="-469" fill="#1F1A3F" width="246" height="34"/>
		<text transform="matrix(1 0 0 1 -582.8726 -446.665)" fill="#FFFFFF" font-family="'Constantia-Bold'" font-size="14">DONATE  GET HELP  FUNDRAISE</text>
	</g>
	<text transform="matrix(1 0 0 1 -556.2002 -317.6533)"><tspan x="0" y="0" fill="#FFFFFF" font-family="'ArialMT'" font-size="14">   Become a winner by </tspan><tspan x="-5.083" y="16.8" fill="#FFFFFF" font-family="'ArialMT'" font-size="14">donating to the disabled </tspan><tspan x="-5.069" y="33.6" fill="#FFFFFF" font-family="'ArialMT'" font-size="14">veterans organization in </tspan><tspan x="-18.303" y="50.4" fill="#FFFFFF" font-family="'ArialMT'" font-size="14">order to change people’s live</tspan></text>
	<g>
		<path fill="#FFFFFF" d="M-395.5-223c0,6.627-5.373,12-12,12h-155c-6.627,0-12-5.373-12-12v-8c0-6.627,5.373-12,12-12h155
			c6.627,0,12,5.373,12,12V-223z"/>
		<text transform="matrix(1 0 0 1 -544.1543 -221.1147)" fill="#1F1A3F" font-family="'Constantia-Bold'" font-size="14">MAKE A CHANGE</text>
	</g>
	<g>
		<text transform="matrix(1 0 0 1 -975 -132.731)"><tspan x="0" y="0" fill="#FFFFFF" font-family="'ChunkFiveEx'" font-size="32" letter-spacing="1">34 </tspan><tspan x="48.768" y="0" fill="#FFFFFF" font-family="'ArialMT'" font-size="32" letter-spacing="1">               </tspan><tspan x="206.127" y="0" fill="#FFFFFF" font-family="'ChunkFiveEx'" font-size="32" letter-spacing="1"> </tspan><tspan x="215.727" y="0" fill="#FFFFFF" font-family="'ArialMT'" font-size="32" letter-spacing="1">        </tspan></text>
		<g>
			<text transform="matrix(1 0 0 1 -490.6465 -116.4204)"><tspan x="0" y="0" fill="#FFFFFF" font-family="'ArialMT'" font-size="10">  IN SAVINGS TO </tspan><tspan x="-12.203" y="12" fill="#FFFFFF" font-family="'ArialMT'" font-size="10">DISABLED VETERANS</tspan></text>
		</g>
		<text transform="matrix(1 0 0 1 -983.4199 -119.1514)"><tspan x="0" y="0" fill="#FFFFFF" font-family="'ArialMT'" font-size="10">PROGRAMS</tspan><tspan x="-9.307" y="12" fill="#FFFFFF" font-family="'ArialMT'" font-size="10"> IN OPERATION</tspan></text>
		<text transform="matrix(1 0 0 1 -851.457 -132.7896)"><tspan x="0" y="0" fill="#FFFFFF" font-family="'ArialMT'" font-size="32" letter-spacing="1"> </tspan><tspan x="10.491" y="0" fill="#FFFFFF" font-family="'ChunkFiveEx'" font-size="32" letter-spacing="1">317 </tspan></text>
		
			<text transform="matrix(1 0 0 1 -675.9805 -132.79)" fill="#FFFFFF" font-family="'ChunkFiveEx'" font-size="32" letter-spacing="1">3,247</text>
		<text transform="matrix(1 0 0 1 -521.2217 -132)" fill="#FFFFFF" font-family="'ChunkFiveEx'" font-size="32" letter-spacing="1">$457,821 </text>
		<g>
			<text transform="matrix(1 0 0 1 -836.0391 -119.21)"><tspan x="0" y="0" fill="#FFFFFF" font-family="'ArialMT'" font-size="10"> HOUSES</tspan><tspan x="-17.861" y="12" fill="#FFFFFF" font-family="'ArialMT'" font-size="10"> IN OPERATION </tspan></text>
		</g>
		<g>
			<text transform="matrix(1 0 0 1 -664.418 -117.2104)"><tspan x="0" y="0" fill="#FFFFFF" font-family="'ArialMT'" font-size="10">  DISABLED </tspan><tspan x="-24.281" y="12" fill="#FFFFFF" font-family="'ArialMT'" font-size="10">VETERANS SERVED  </tspan></text>
		</g>
	</g>
	<line fill="none" stroke="#C1272D" stroke-miterlimit="10" x1="-1011.49" y1="-39.963" x2="-349.51" y2="-40.168"/>
	<g>
		<text transform="matrix(1 0 0 1 -976.5 -45)" fill="#C1272D" font-family="'Constantia'" font-size="19">NEWS &amp; FEATURES</text>
	</g>
	<rect x="-1011.5" y="-39" fill="#1F1A3F" width="662" height="216"/>
	<rect x="-767.23" y="141" fill="none" width="178" height="28"/>
	<text transform="matrix(1 0 0 1 -767.23 149.5918)"><tspan x="0" y="0" fill="#FFFFFF" font-family="'ArialMT'" font-size="12">Vestibulum sem dolor, ornare ut </tspan><tspan x="0" y="14.4" fill="#FFFFFF" font-family="'ArialMT'" font-size="12">sapien sagittis, faucibus lacinia </tspan></text>
	<rect x="-997.5" y="141" fill="none" width="178" height="28"/>
	<text transform="matrix(1 0 0 1 -997.5 149.5918)"><tspan x="0" y="0" fill="#FFFFFF" font-family="'ArialMT'" font-size="12">At vero eos et accusamus et </tspan><tspan x="0" y="14.4" fill="#FFFFFF" font-family="'ArialMT'" font-size="12">iusto odio dignissimos ducimus </tspan></text>
	<rect x="-537.5" y="141" fill="none" width="204" height="31"/>
	<text transform="matrix(1 0 0 1 -537.5 149.5918)"><tspan x="0" y="0" fill="#FFFFFF" font-family="'ArialMT'" font-size="12">Pellentesque lorem velit, porttitor </tspan><tspan x="0" y="14.4" fill="#FFFFFF" font-family="'ArialMT'" font-size="12">fringilla rhoncus quis, vehicula et </tspan></text>
	<rect x="-1011.5" y="245" fill="#1F1A3F" width="662" height="309"/>
	<rect x="-1013.5" y="245" fill="#E6E6E6" width="666" height="83"/>
	
		<text transform="matrix(1 0 0 1 -976.5 308)" fill="#C1272D" font-family="'SocialIconsProSet1-Rounded'" font-size="60" letter-spacing="12">fGLT</text>
	<rect x="-1013.5" y="328" fill="#C1272D" width="664" height="32"/>
	<text transform="matrix(1 0 0 1 -970.606 351)"><tspan x="0" y="0" fill="#FFFFFF" font-family="'Verdana'" font-size="15">PROGRAMS       </tspan><tspan x="129.031" y="0" fill="#FFFFFF" font-family="'Verdana'" font-size="15" letter-spacing="-14"> </tspan><tspan x="120.279" y="0" fill="#FFFFFF" font-family="'Verdana'" font-size="15">LOCATIONS         </tspan><tspan x="264.212" y="0" fill="#FFFFFF" font-family="'Verdana'" font-size="15" letter-spacing="-10"> </tspan><tspan x="259.36" y="0" fill="#FFFFFF" font-family="'Verdana'" font-size="15">NEWS        GET INVOLVED       </tspan><tspan x="510.75" y="0" fill="#FFFFFF" font-family="'Verdana'" font-size="15" letter-spacing="-14"> </tspan><tspan x="501.999" y="0" fill="#FFFFFF" font-family="'Verdana'" font-size="15">ABOUT</tspan></text>
	<rect x="-1173.5" y="226" fill="#FFFFFF" width="83" height="173"/>
	<path fill="#FFFFFF" stroke="#C1272D" stroke-miterlimit="10" d="M-387,294.5c0,6.627-5.373,12-12,12h-244c-6.627,0-12-5.373-12-12
		v-10c0-6.627,5.373-12,12-12h244c6.627,0,12,5.373,12,12V294.5z"/>
	<text transform="matrix(1 0 0 1 -643.5 296)" opacity="0.7" fill="#808080" font-family="'ArialMT'" font-size="17">Search</text>
	<path fill="#C1272D" d="M-386.5,294.323c0,6.725-6.383,12.677-14.256,12.677h-33.263l0.122-16.414L-434.019,272h33.263
		c7.873,0,14.256,5.452,14.256,12.177V294.323z"/>
	<g>
		<path fill="none" stroke="#FFFFFF" stroke-width="2.916" stroke-miterlimit="10" d="M-402.93,288c0,2.517-1.183,4.794-3.096,6.443
			c-1.913,1.648-4.556,2.669-7.475,2.669c-5.838,0-10.57-4.08-10.57-9.112s4.732-9.112,10.57-9.112S-402.93,282.968-402.93,288z"/>
		<path fill="#FFFFFF" d="M-393.812,298.522c-0.494,0.988-1.374,1.55-1.964,1.254l-9.623-4.809c-0.59-0.296-0.67-1.335-0.176-2.323
			l0,0c0.494-0.987,1.374-1.55,1.964-1.255l9.623,4.81C-393.397,296.494-393.32,297.535-393.812,298.522L-393.812,298.522z"/>
	</g>
	<g display="none">
	</g>
	<rect x="-971.5" y="370.5" fill="none" width="114" height="123.5"/>
	<text transform="matrix(1 0 0 1 -971.5 380.4395)"><tspan x="0" y="0" fill="#FFFFFF" font-family="'MyriadPro-Regular'" font-size="14">• Houses</tspan><tspan x="0" y="21" fill="#FFFFFF" font-family="'MyriadPro-Regular'" font-size="14">• Hero Miles</tspan><tspan x="0" y="42" fill="#FFFFFF" font-family="'MyriadPro-Regular'" font-size="14">• Hotel for Heroes</tspan><tspan x="0" y="63" fill="#FFFFFF" font-family="'MyriadPro-Regular'" font-size="14">• Newman’s Own      </tspan><tspan x="116.575" y="63" fill="#FFFFFF" font-family="'MyriadPro-Regular'" font-size="14" letter-spacing="1"> </tspan><tspan x="120.942" y="63" fill="#FFFFFF" font-family="'MyriadPro-Regular'" font-size="14"> </tspan><tspan x="0" y="77" fill="#FFFFFF" font-family="'MyriadPro-Regular'" font-size="14">   Rewards </tspan><tspan x="0" y="98" fill="#FFFFFF" font-family="'MyriadPro-Regular'" font-size="14">•Team Pave </tspan></text>
	<rect x="-851.5" y="370.5" fill="none" width="106" height="85.5"/>
	<text transform="matrix(1 0 0 1 -851.5 379.7295)"><tspan x="0" y="0" fill="#FFFFFF" font-family="'MyriadPro-Regular'" font-size="13">Charity Navigator</tspan><tspan x="0" y="14" fill="#FFFFFF" font-family="'MyriadPro-Regular'" font-size="13">139 Harristown Rd </tspan><tspan x="0" y="28" fill="#FFFFFF" font-family="'MyriadPro-Regular'" font-size="13">Suite 101</tspan><tspan x="0" y="42" fill="#FFFFFF" font-family="'MyriadPro-Regular'" font-size="13">Glen Rock, NJ </tspan><tspan x="0" y="56" fill="#FFFFFF" font-family="'MyriadPro-Regular'" font-size="13">07452</tspan><tspan x="0" y="70" fill="#FFFFFF" font-family="'MyriadPro-Regular'" font-size="13">P: 201.818.1288</tspan></text>
	<rect x="-715.5" y="370.5" fill="none" width="91" height="103.5"/>
	<text transform="matrix(1 0 0 1 -715.5 380.4395)"><tspan x="0" y="0" fill="#FFFFFF" font-family="'MyriadPro-Regular'" font-size="14">• Events</tspan><tspan x="0" y="21" fill="#FFFFFF" font-family="'MyriadPro-Regular'" font-size="14">• Articles</tspan><tspan x="0" y="42" fill="#FFFFFF" font-family="'MyriadPro-Regular'" font-size="14">• Photos</tspan><tspan x="0" y="63" fill="#FFFFFF" font-family="'MyriadPro-Regular'" font-size="14">• Videos</tspan><tspan x="0" y="84" fill="#FFFFFF" font-family="'MyriadPro-Regular'" font-size="14">• Pave Stories</tspan></text>
	<rect x="-612" y="370.5" fill="none" width="91" height="57.25"/>
	<text transform="matrix(1 0 0 1 -611.9995 380.4395)"><tspan x="0" y="0" fill="#FFFFFF" font-family="'MyriadPro-Regular'" font-size="14">• Donate </tspan><tspan x="0" y="21" fill="#FFFFFF" font-family="'MyriadPro-Regular'" font-size="14">• Volunteer</tspan><tspan x="0" y="42" fill="#FFFFFF" font-family="'MyriadPro-Regular'" font-size="14">• Participate </tspan></text>
	<rect x="-476" y="370.5" fill="none" width="93.5" height="114.5"/>
	<text transform="matrix(1 0 0 1 -476 380.4395)"><tspan x="0" y="0" fill="#FFFFFF" font-family="'MyriadPro-Regular'" font-size="14">• History</tspan><tspan x="0" y="21" fill="#FFFFFF" font-family="'MyriadPro-Regular'" font-size="14">• Leadership </tspan><tspan x="0" y="42" fill="#FFFFFF" font-family="'MyriadPro-Regular'" font-size="14">• Supporters </tspan><tspan x="0" y="63" fill="#FFFFFF" font-family="'MyriadPro-Regular'" font-size="14">• Financial</tspan><tspan x="0" y="77" fill="#FFFFFF" font-family="'MyriadPro-Regular'" font-size="14"> Accountability </tspan><tspan x="0" y="98" fill="#FFFFFF" font-family="'MyriadPro-Regular'" font-size="14">• FAQ</tspan></text>
	<g>
		<defs>
			<rect id="SVGID_4_" x="-995.5" y="-30" width="170" height="159"/>
		</defs>
		<clipPath id="SVGID_5_">
			<use xlink:href="#SVGID_4_"  overflow="visible"/>
		</clipPath>
		<g transform="matrix(1 0 0 1 0 -3.814697e-006)" clip-path="url(#SVGID_5_)">
			
				<image overflow="visible" width="1170" height="780" xlink:href="6FE9BAA3.jpg"  transform="matrix(0.2081 0 0 0.2081 -1068.1162 -36.3325)">
			</image>
		</g>
	</g>
	<g>
		<defs>
			<rect id="SVGID_6_" x="-535.5" y="-30" width="170" height="159"/>
		</defs>
		<clipPath id="SVGID_7_">
			<use xlink:href="#SVGID_6_"  overflow="visible"/>
		</clipPath>
		<g clip-path="url(#SVGID_7_)">
			
				<image overflow="visible" width="720" height="480" xlink:href="../../Images/People/bear-necessities-fundraiser-event08_7752.jpg"  transform="matrix(0.3259 0 0 0.3259 -600.5 -29.418)">
			</image>
		</g>
	</g>
	<g>
		<defs>
			<rect id="SVGID_8_" x="-765.5" y="-30" width="171" height="154"/>
		</defs>
		<clipPath id="SVGID_9_">
			<use xlink:href="#SVGID_8_"  overflow="visible"/>
		</clipPath>
		<g clip-path="url(#SVGID_9_)">
			
				<image overflow="visible" width="600" height="563" xlink:href="../../Images/People/b456b1f6faf5f3cb80e1fda7189ff8a5.jpg"  transform="matrix(0.2826 0 0 0.2826 -765.0396 -29.0845)">
			</image>
		</g>
	</g>
	<line fill="none" stroke="#C1272D" stroke-miterlimit="10" x1="-999.5" y1="359.5" x2="-365.5" y2="359.5"/>
	
		<image display="none" overflow="visible" opacity="0.4" width="662" height="200" xlink:href="../Web Mockup/pave-grid.png"  transform="matrix(1 0 0 5.125 -1011.5 -471)">
	</image>
</g>
<g id="Layer_2">
	<polygon display="none" fill="#FFFF00" points="190.162,50.225 159.085,50.678 141.84,76.535 131.056,47.119 -0.5,47 -0.5,0 
		140.588,0.003 150.548,6.917 179.886,-3.864 170.807,25.832 	"/>
	<polygon display="none" fill="#FFD23B" points="190.162,50.225 161.175,50.647 141.84,76.535 127.666,47 -0.5,47 -0.5,0 
		140.588,0.003 150.548,6.917 179.886,-3.864 170.807,25.832 	"/>
	<polygon fill="#FFFFFF" points="184.45,53.608 163.344,53.595 140.396,76.535 127.666,54 -0.5,54 -0.5,0 130.831,0.362 
		149.652,13.622 171.245,5.636 164.45,27.633 	"/>
	<text transform="matrix(1 0 0 1 3 47)" fill="#C1272D" font-family="'Constantia'" font-size="48">PAVE</text>
	<polygon fill="#1F1A3F" points="178.719,45.701 155.698,46.037 142.924,65.191 135.491,43.4 113.328,37.17 131.754,23.367 
		130.831,0.362 149.652,13.622 171.245,5.636 164.45,27.633 	"/>
</g>
</svg>
