<?xml version="1.0" encoding="utf-8"?>
<!-- Generator: Adobe Illustrator 16.0.3, SVG Export Plug-In . SVG Version: 6.00 Build 0)  -->
<!DOCTYPE svg PUBLIC "-//W3C//DTD SVG 1.1//EN" "http://www.w3.org/Graphics/SVG/1.1/DTD/svg11.dtd">
<svg version="1.1" id="Layer_1" xmlns="http://www.w3.org/2000/svg" xmlns:xlink="http://www.w3.org/1999/xlink" x="0px" y="0px"
	 width="179.836px" height="84px" viewBox="1062.881 470.093 179.836 84" enable-background="new 1062.881 470.093 179.836 84"
	 xml:space="preserve">
<g id="Layer_2">
	<polygon display="none" fill="#FFFF00" points="1253.543,520.225 1222.466,520.678 1205.221,546.535 1194.437,517.119 
		1062.881,517 1062.881,470 1203.969,470.003 1213.929,476.917 1243.267,466.136 1234.188,495.832 	"/>
	<polygon display="none" fill="#FFD23B" points="1253.543,520.225 1224.556,520.646 1205.221,546.535 1191.047,517 1062.881,517 
		1062.881,470 1203.969,470.003 1213.929,476.917 1243.267,466.136 1234.188,495.832 	"/>
	<polygon display="none" fill="#FF66CC" points="1247.831,523.608 1226.725,523.595 1203.777,546.535 1191.047,524 1062.881,524 
		1062.881,470 1194.212,470.362 1213.033,483.622 1234.626,475.636 1227.831,497.633 	"/>
	<text transform="matrix(1 0 0 1 1066.3809 517)" fill="#C1272D" font-family="'Constantia'" font-size="48">PAVE</text>
	<polygon fill="#1F1A3F" points="1242.1,515.701 1219.079,516.037 1206.305,535.191 1198.872,513.4 1176.709,507.17 
		1195.135,493.367 1194.212,470.362 1213.033,483.622 1234.626,475.636 1227.831,497.633 	"/>
</g>
</svg>
