<?xml version="1.0" encoding="utf-8"?>
<!-- Generator: Adobe Illustrator 16.0.3, SVG Export Plug-In . SVG Version: 6.00 Build 0)  -->
<!DOCTYPE svg PUBLIC "-//W3C//DTD SVG 1.1//EN" "http://www.w3.org/Graphics/SVG/1.1/DTD/svg11.dtd">
<svg version="1.1" id="Layer_1" xmlns="http://www.w3.org/2000/svg" xmlns:xlink="http://www.w3.org/1999/xlink" x="0px" y="0px"
	 width="100px" height="100px" viewBox="0 0 100 100" enable-background="new 0 0 100 100" xml:space="preserve">
<path fill="#C1272D" d="M-223.689,9.125h68.438c4.688,0.703,7.031,3.047,7.031,7.031v68.438c-0.703,4.688-3.047,7.031-7.031,7.031
	h-17.813c-0.313,0-0.469-0.156-0.469-0.469V60.453c0.039-0.313,0.195-0.469,0.469-0.469h10.078l1.641-12.656h-11.719
	c-0.313,0-0.469-0.156-0.469-0.469v-8.906c0-2.969,2.578-4.453,7.734-4.453h4.922V22.25c-2.852-0.313-5.977-0.469-9.375-0.469
	h-0.703c-7.148,0-12.07,3.281-14.766,9.844c-0.625,2.109-0.938,4.219-0.938,6.328v8.906c0,0.313-0.156,0.469-0.469,0.469h-10.313
	v12.656h10.313c0.313,0.039,0.469,0.195,0.469,0.469v30.703c0,0.313-0.156,0.469-0.469,0.469h-36.563
	c-4.688-0.703-7.031-3.047-7.031-7.031V16.156C-230.018,11.469-227.674,9.125-223.689,9.125z"/>
<path fill="#C1272D" d="M-104.631,9.125h68.438c4.688,0.703,7.031,3.047,7.031,7.031v68.438c-0.703,4.688-3.047,7.031-7.031,7.031
	h-30.703c0.469-3.086,0.703-4.805,0.703-5.156c0-5.898-1.953-10.664-5.859-14.297c-2.266-2.305-5.469-5.117-9.609-8.438
	c-1.25-1.68-1.875-3.164-1.875-4.453c0-2.344,2.734-5.938,8.203-10.781c3.125-3.242,4.688-7.773,4.688-13.594v-0.469
	c0-5.82-2.578-10.977-7.734-15.469h-0.234V18.5h6.563c0.469,0,3.281-1.484,8.438-4.453v-0.234h-25.313c-9.805,0-17.305,2.5-22.5,7.5
	h-0.234v-5.156C-110.959,11.469-108.615,9.125-104.631,9.125z M-111.662,52.953h0.234c3.906,3.125,8.438,4.688,13.594,4.688
	l1.406-0.234h1.875c0.313,0.039,0.469,0.195,0.469,0.469c-0.625,1.289-0.938,2.539-0.938,3.75v1.172c0,2.07,1.094,4.57,3.281,7.5
	c-0.43,0.234-3.789,0.625-10.078,1.172c-3.828,0.938-7.031,1.875-9.609,2.813h-0.234V52.953z M-91.74,74.281h3.75
	c8.906,5.781,13.359,10.938,13.359,15.469v1.406c0,0.313-0.156,0.469-0.469,0.469h-29.531c-4.688-0.703-7.031-3.047-7.031-7.031
	V82.25c0-2.383,3.75-4.648,11.25-6.797C-97.561,74.672-94.67,74.281-91.74,74.281z M-96.193,18.266
	c7.188,0,12.031,6.563,14.531,19.688l0.234,3.281c0,8.438-3.75,12.656-11.25,12.656c-5.781,0-10.391-4.844-13.828-14.531
	c-0.938-2.695-1.406-5.273-1.406-7.734c0-7.266,3.125-11.719,9.375-13.359H-96.193z M-50.256,14.281v12.891
	c0,0.313-0.156,0.469-0.469,0.469h-12.656v6.563h12.656c0.313,0.039,0.469,0.195,0.469,0.469v12.656h6.797V34.672
	c0.039-0.313,0.195-0.469,0.469-0.469h12.656v-6.563H-42.99c-0.313,0-0.469-0.156-0.469-0.469V14.281H-50.256z"/>
<path fill="#C1272D" d="M15.428,9.125h68.438c4.688,0.703,7.031,3.047,7.031,7.031v68.438c-0.703,4.688-3.047,7.031-7.031,7.031
	H15.428c-4.688-0.703-7.031-3.047-7.031-7.031V16.156C9.1,11.469,11.443,9.125,15.428,9.125z M12.85,49.672v1.406
	c0,6.172,3.438,11.016,10.313,14.531c1.758,0.781,3.789,1.172,6.094,1.172h0.234c7.539,0,12.852-4.063,15.938-12.188
	c0.313-1.484,0.469-2.656,0.469-3.516v-1.406c0-6.172-3.438-11.016-10.313-14.531c-1.758-0.781-3.789-1.172-6.094-1.172h-0.234
	c-7.539,0-12.852,4.063-15.938,12.188C13.006,47.641,12.85,48.813,12.85,49.672z M53.396,49.672v1.406
	c0,6.172,3.438,11.016,10.313,14.531c1.758,0.781,3.789,1.172,6.094,1.172h0.234c7.539,0,12.852-4.063,15.938-12.188
	c0.313-1.484,0.469-2.656,0.469-3.516v-1.406c0-6.172-3.438-11.016-10.313-14.531c-1.758-0.781-3.789-1.172-6.094-1.172h-0.234
	c-7.539,0-12.852,4.063-15.938,12.188C53.553,47.641,53.396,48.813,53.396,49.672z"/>
<path fill="#C1272D" d="M135.486,9.125h68.438c4.688,0.703,7.031,3.047,7.031,7.031v68.438c-0.703,4.688-3.047,7.031-7.031,7.031
	h-68.438c-4.688-0.703-7.031-3.047-7.031-7.031V16.156C129.158,11.469,131.502,9.125,135.486,9.125z M180.018,26.703h-0.234V26
	l0.234-0.469h-0.234c-5,3.633-8.75,9.414-11.25,17.344h-0.469c-4.609-4.258-12.344-8.242-23.203-11.953
	c0-0.195-0.313-0.352-0.938-0.469l-0.234,0.469c0,3.398,1.953,6.211,5.859,8.438v0.469h-0.703c-1.016,0-2.109,0.156-3.281,0.469
	c0,2.227,1.641,4.336,4.922,6.328c1.016,0.469,1.719,0.703,2.109,0.703v0.469c-1.406,0-2.656,0.625-3.75,1.875
	c1.719,3.125,4.297,4.688,7.734,4.688v0.234c-1.094,1.094-1.641,1.953-1.641,2.578v0.938c0.82,1.563,2.305,2.344,4.453,2.344h0.234
	v0.234c-3.672,3.594-7.891,5.391-12.656,5.391h-1.406c-4.609,0-8.828-1.719-12.656-5.156v0.234
	c7.656,9.688,17.031,14.531,28.125,14.531h2.813c9.609,0,18.438-3.672,26.484-11.016c4.258-4.805,6.758-9.102,7.5-12.891
	c4.023,0,6.914-1.172,8.672-3.516c-0.195,0-0.977,0.078-2.344,0.234c-3.125-0.156-4.688-0.469-4.688-0.938
	c4.375-1.367,6.563-2.93,6.563-4.688h-0.234c-2.07,0.781-4.18,1.172-6.328,1.172c-1.563,0-2.344-0.781-2.344-2.344
	c-1.992-5.234-4.961-8.75-8.906-10.547c-1.719-0.938-3.438-1.406-5.156-1.406v-0.469c3.281-0.625,4.922-1.328,4.922-2.109v-0.234
	c0-0.234-0.234-0.469-0.703-0.703h-0.703c-0.625,0-1.641,0.156-3.047,0.469l0.938-1.172v-0.469h-0.234
	C182.947,25.141,181.541,25.688,180.018,26.703z"/>
</svg>
